<svg width="236.5mm" height="236.5mm" version="1.1" viewBox="0 0 236.5 236.5" xmlns="http://www.w3.org/2000/svg" xmlnsXlink="http://www.w3.org/1999/xlink">
 <g transform="translate(21.37 -41.56)">
  <image x="-21.37" y="41.56" width="236.5" height="236.5" xlinkHref=""/>
  <path d="m26.69 145.9a2.67 2.447 0 0 1-2.67 2.447 2.67 2.447 0 0 1-2.67-2.447 2.67 2.447 0 0 1 2.67-2.447 2.67 2.447 0 0 1 2.67 2.447z" style="fill-opacity:0;stroke-width:.265;stroke:#000"/>
  <path d="m57.83 195.3a2.67 2.447 0 0 1-2.67 2.447 2.67 2.447 0 0 1-2.67-2.447 2.67 2.447 0 0 1 2.67-2.447 2.67 2.447 0 0 1 2.67 2.447z" style="fill-opacity:0;stroke-width:.265;stroke:#000"/>
  <path d="m65.84 202.6a2.67 2.67 0 0 1-2.67 2.67 2.67 2.67 0 0 1-2.67-2.67 2.67 2.67 0 0 1 2.67-2.67 2.67 2.67 0 0 1 2.67 2.67z" style="fill-opacity:0;stroke-width:.265;stroke:#000"/>
  <path d="m124 182.2a2.36 2.517 0 0 1-2.36 2.517 2.36 2.517 0 0 1-2.36-2.517 2.36 2.517 0 0 1 2.36-2.517 2.36 2.517 0 0 1 2.36 2.517z" style="fill-opacity:0;stroke-width:.265;stroke:#000"/>
  <path d="m170.8 177.2a2.558 2.558 0 0 1-2.558 2.558 2.558 2.558 0 0 1-2.558-2.558 2.558 2.558 0 0 1 2.558-2.558 2.558 2.558 0 0 1 2.558 2.558z" style="fill-opacity:0;stroke-width:.265;stroke:#000"/>
  <path d="m73.85 75.26a2.447 2.336 0 0 1-2.447 2.336 2.447 2.336 0 0 1-2.447-2.336 2.447 2.336 0 0 1 2.447-2.336 2.447 2.336 0 0 1 2.447 2.336z" style="fill-opacity:0;stroke-width:.265;stroke:#000"/>
  <path d="m166.6 73.26a2.447 2.113 0 0 1-2.447 2.113 2.447 2.113 0 0 1-2.447-2.113 2.447 2.113 0 0 1 2.447-2.113 2.447 2.113 0 0 1 2.447 2.113z" style="fill-opacity:0;stroke-width:.265;stroke:#000"/>
 </g>
</svg>
